<svg width="30" height="30" viewBox="0 0 30 30" fill="none" xmlns="http://www.w3.org/2000/svg">
  <circle cx="15" cy="15" r="15" fill="url(#grad)"/>
  <defs>
    <linearGradient id="grad" x1="0" y1="0" x2="30" y2="30" gradientUnits="userSpaceOnUse">
      <stop offset="0" stop-color="#8247E5"/>
      <stop offset="1" stop-color="#6A4CE6"/>
    </linearGradient>
  </defs>
  <path d="M20.57 12.41V15.87L17.36 17.72L14.15 15.87V12.41L17.36 10.56L20.57 12.41ZM17.36 18.91L21.78 16.38C22.04 16.23 22.2 15.96 22.2 15.67V12.61C22.2 12.32 22.04 12.05 21.78 11.9L17.36 9.37C17.12 9.23 16.81 9.23 16.57 9.37L12.15 11.9C11.89 12.05 11.73 12.32 11.73 12.61V17.48L8.52 19.33L5.31 17.48V14.02L8.52 12.17L10.41 13.26V11.9L8.52 10.81L4.1 13.34C3.84 13.49 3.68 13.76 3.68 14.05V17.99C3.68 18.28 3.84 18.55 4.1 18.7L8.52 21.23C8.76 21.37 9.07 21.37 9.31 21.23L13.73 18.7C13.99 18.55 14.15 18.28 14.15 17.99V13.12L17.36 11.27L20.57 13.12V14.48L18.68 15.57V16.93L20.57 15.84V17.2L17.36 19.05Z" fill="white"/>
</svg>
